HIERARCHY
ROOT Hips
{
	OFFSET -0.001795 -0.223333 0.028219
	CHANNELS 6 Xposition Yposition Zposition Zrotation Yrotation Xrotation
	JOINT LeftUpLeg
	{
		OFFSET 0.069520 -0.091406 -0.006815
		CHANNELS 3 Zrotation Yrotation Xrotation
		JOINT LeftLeg
		{
			OFFSET 0.034277 -0.375199 -0.004496
			CHANNELS 3 Zrotation Yrotation Xrotation
			JOINT LeftFoot
			{
				OFFSET -0.013596 -0.397961 -0.043693
				CHANNELS 3 Zrotation Yrotation Xrotation
				JOINT LeftToe
				{
					OFFSET 0.026358 -0.055791 0.119288
					CHANNELS 3 Zrotation Yrotation Xrotation
					End Site
					{
						OFFSET 0.000000 0.000000 0.000000
					}
				}
			}
		}
	}
	JOINT RightUpLeg
	{
		OFFSET -0.067670 -0.090522 -0.004320
		CHANNELS 3 Zrotation Yrotation Xrotation
		JOINT RightLeg
		{
			OFFSET -0.038290 -0.382569 -0.008850
			CHANNELS 3 Zrotation Yrotation Xrotation
			JOINT RightFoot
			{
				OFFSET 0.015774 -0.398415 -0.042312
				CHANNELS 3 Zrotation Yrotation Xrotation
				JOINT RightToe
				{
					OFFSET -0.025372 -0.048144 0.123348
					CHANNELS 3 Zrotation Yrotation Xrotation
					End Site
					{
						OFFSET 0.000000 0.000000 0.000000
					}
				}
			}
		}
	}
	JOINT Spine
	{
		OFFSET -0.002533 0.108963 -0.026696
		CHANNELS 3 Zrotation Yrotation Xrotation
		JOINT Spine1
		{
			OFFSET 0.005487 0.135180 0.001092
			CHANNELS 3 Zrotation Yrotation Xrotation
			JOINT Spine2
			{
				OFFSET 0.001457 0.052922 0.025425
				CHANNELS 3 Zrotation Yrotation Xrotation
				JOINT Neck
				{
					OFFSET -0.002778 0.213870 -0.042857
					CHANNELS 3 Zrotation Yrotation Xrotation
					JOINT Head
					{
						OFFSET 0.005152 0.064970 0.051349
						CHANNELS 3 Zrotation Yrotation Xrotation
						End Site
						{
							OFFSET 0.000000 0.000000 0.000000
						}
					}
				}
				JOINT LeftShoulder
				{
					OFFSET 0.078845 0.121749 -0.034090
					CHANNELS 3 Zrotation Yrotation Xrotation
					JOINT LeftArm
					{
						OFFSET 0.090977 0.030469 -0.008868
						CHANNELS 3 Zrotation Yrotation Xrotation
						JOINT LeftForeArm
						{
							OFFSET 0.259612 -0.012772 -0.027456
							CHANNELS 3 Zrotation Yrotation Xrotation
							JOINT LeftHand
							{
								OFFSET 0.249234 0.008986 -0.001171
								CHANNELS 3 Zrotation Yrotation Xrotation
								End Site
								{
									OFFSET 0.000000 0.000000 0.000000
								}
							}
						}
					}
				}
				JOINT RightShoulder
				{
					OFFSET -0.081759 0.118833 -0.038615
					CHANNELS 3 Zrotation Yrotation Xrotation
					JOINT RightArm
					{
						OFFSET -0.096012 0.032551 -0.009143
						CHANNELS 3 Zrotation Yrotation Xrotation
						JOINT RightForeArm
						{
							OFFSET -0.253742 -0.013329 -0.021401
							CHANNELS 3 Zrotation Yrotation Xrotation
							JOINT RightHand
							{
								OFFSET -0.255298 0.007772 -0.005559
								CHANNELS 3 Zrotation Yrotation Xrotation
								End Site
								{
									OFFSET 0.000000 0.000000 0.000000
								}
							}
						}
					}
				}
			}
		}
	}
}
MOTION
Frames: 8
Frame Time: 0.050000
0.000000 0.921919 0.000000 0.377390 -9.963532 -3.488563 6.394337 -0.203073 -12.534395 -0.354555 -0.068934 6.094440 3.096680 9.257248 17.691708 0.000000 0.000000 0.000000 -1.074665 -0.489770 7.260361 4.533525 -0.288196 7.896190 -5.663052 -13.247953 -0.257829 0.000000 0.000000 0.000000 2.295131 -0.550580 10.275237 0.457166 0.486953 -29.421631 1.459436 7.640210 29.478946 6.237717 -2.850542 -19.186739 0.000000 0.000000 0.000000 -15.020788 -9.339417 3.950877 -45.698498 -18.371256 -1.336859 -142.571798 -74.620347 141.034623 0.000000 0.000000 0.000000 15.915534 2.151733 0.627210 43.042405 23.478846 1.083841 -80.400841 62.994949 -47.176992 0.000000 0.000000 0.000000
-0.000684 0.917519 0.004367 -0.294764 -7.474925 -2.408466 7.393941 -0.177980 -15.119264 -1.415443 0.085889 8.292888 2.170887 7.958508 15.711180 0.000000 0.000000 0.000000 0.907115 -0.636333 6.322158 3.334871 -0.130848 8.568017 -6.892779 -16.090471 -1.052481 0.000000 0.000000 0.000000 1.343251 -0.422458 8.504005 1.591357 0.264686 -28.889437 2.916002 7.165674 28.819191 3.021809 -0.914019 -14.255196 0.000000 0.000000 0.000000 -15.753612 -7.032308 2.523730 -42.808641 -18.638104 -1.217830 -129.834718 -72.173449 122.139403 0.000000 0.000000 0.000000 13.464242 1.181398 0.404407 42.360836 23.089237 0.904847 -78.531230 61.226568 -43.719829 0.000000 0.000000 0.000000
-0.001033 0.913372 0.008562 -0.409503 -7.509836 -2.061104 7.670573 -0.143173 -17.026164 -1.825217 0.172550 11.479149 2.761986 8.609111 14.187311 0.000000 0.000000 0.000000 0.887218 -0.601809 5.947397 3.611879 -0.158792 9.217385 -7.110384 -16.304891 -2.481991 0.000000 0.000000 0.000000 3.256361 -0.551035 8.247495 -0.903459 0.766751 -28.853643 2.743298 7.837831 28.256044 7.489649 -4.201072 -14.439844 0.000000 0.000000 0.000000 -13.528245 -6.945712 2.350877 -46.056665 -15.093993 -2.418782 -130.084316 -69.599173 119.969978 0.000000 0.000000 0.000000 14.971116 -0.886055 -0.556020 39.138245 22.529459 0.450995 -81.388161 62.259875 -46.946044 0.000000 0.000000 0.000000
-0.001214 0.910555 0.012792 -0.148773 -7.851636 -2.460993 9.026248 0.132367 -18.667860 -4.715494 0.984993 15.306436 3.310264 9.465665 14.288919 0.000000 0.000000 0.000000 0.400713 -0.553274 5.912994 4.088309 -0.186671 11.183748 -7.264363 -16.218246 -4.433993 0.000000 0.000000 0.000000 2.323400 -0.471294 8.101728 0.231640 0.513121 -28.257535 2.108173 8.637857 29.199102 5.558071 -2.735478 -13.738880 0.000000 0.000000 0.000000 -14.292151 -4.984800 1.291729 -45.605912 -14.415147 -2.733805 -128.646339 -70.190919 118.364097 0.000000 0.000000 0.000000 14.945868 -1.517253 -0.763092 38.507799 22.784903 0.389541 -83.736533 60.050928 -46.537117 0.000000 0.000000 0.000000
-0.001295 0.907541 0.016638 0.183552 -7.808555 -3.292283 9.187382 0.218462 -21.166581 -6.063498 1.629459 20.618038 5.024199 12.178970 14.901766 0.000000 0.000000 0.000000 -0.151985 -0.549045 6.454795 4.575938 -0.237683 13.042244 -7.392378 -16.114061 -6.385459 0.000000 0.000000 0.000000 1.564091 -0.469003 9.428696 0.367228 0.492029 -28.310362 1.788777 9.274794 29.763870 5.363681 -2.153681 -16.047635 0.000000 0.000000 0.000000 -12.974647 -3.186894 0.392442 -45.217231 -13.303142 -3.182835 -133.882799 -69.494836 123.814894 0.000000 0.000000 0.000000 14.729801 -1.165964 -0.453141 34.699794 22.768804 0.034213 -80.766087 59.956349 -44.479744 0.000000 0.000000 0.000000
-0.001322 0.906887 0.021316 0.451421 -7.970097 -1.730799 10.101559 0.507297 -24.580970 -8.814655 2.671647 22.266273 8.237962 16.966864 17.551653 0.000000 0.000000 0.000000 -0.709553 -0.387791 5.030347 5.027500 -0.285968 14.611159 -6.981023 -14.347680 -8.750882 0.000000 0.000000 0.000000 1.687173 -0.462007 8.874879 -0.420196 0.746556 -30.534101 1.931003 9.960160 30.915587 4.845306 -1.399385 -18.115753 0.000000 0.000000 0.000000 -13.304345 -2.455418 -0.065376 -42.878965 -10.200156 -4.166140 -136.755774 -68.937209 126.298495 0.000000 0.000000 0.000000 13.828631 -1.911534 -0.691688 31.835530 21.232393 -0.636514 -82.943755 61.815845 -47.901543 0.000000 0.000000 0.000000
-0.001923 0.906889 0.029249 0.950952 -9.049847 -2.094565 11.327789 0.971584 -25.714538 -11.392898 3.618444 21.869352 12.363969 22.392277 18.683389 0.000000 0.000000 0.000000 -0.322624 -0.440168 5.447246 4.004120 0.017493 15.921599 -7.727415 -15.964460 -9.528666 0.000000 0.000000 0.000000 1.682536 -0.510855 10.316289 -3.203310 1.282387 -31.607166 2.913794 9.688928 30.762020 4.799498 -1.785558 -16.153012 0.000000 0.000000 0.000000 -14.266656 -2.427946 0.051842 -39.207813 -8.496395 -4.458798 -135.552334 -71.277103 126.850060 0.000000 0.000000 0.000000 12.781527 -2.221407 -0.972205 28.196866 20.931069 -0.826880 -81.213596 62.819590 -48.462559 0.000000 0.000000 0.000000
-0.003838 0.904938 0.041578 1.142060 -8.439230 -2.343557 11.952143 1.155718 -27.124653 -11.141891 3.020915 17.780973 11.817686 21.506236 21.669376 0.000000 0.000000 0.000000 -0.065226 -0.599440 7.106616 2.553754 0.258602 14.653961 -7.324489 -14.972125 -9.326795 0.000000 0.000000 0.000000 0.981454 -0.451973 10.441017 -2.885729 1.289456 -33.491032 0.955307 10.152338 32.868494 6.075844 -2.447849 -17.612743 0.000000 0.000000 0.000000 -13.166278 -0.493412 -0.871441 -38.612476 -6.769642 -5.100544 -128.173042 -73.308265 119.291073 0.000000 0.000000 0.000000 11.612719 -4.035978 -1.655791 25.218325 21.368485 -1.050260 -78.013243 61.800630 -45.004189 0.000000 0.000000 0.000000
